<?xml version="1.0" encoding="utf-8"?>
<!-- Generator: Adobe Illustrator 23.0.6, SVG Export Plug-In . SVG Version: 6.00 Build 0)  -->
<svg version="1.1" xmlns="http://www.w3.org/2000/svg" xmlns:xlink="http://www.w3.org/1999/xlink" x="0px" y="0px"
	 viewBox="0 0 1231 176" style="enable-background:new 0 0 1231 176;" xml:space="preserve">
<style type="text/css">
	.st0{fill:#00B079;}
	.st1{clip-path:url(#SVGID_2_);fill:#00B079;}
</style>
<g id="Warstwa_1">
</g>
<g id="logo">
	<g>
		<g>
			<path class="st0" d="M151.21,11.55H26.08C17.75,11.55,11,18.31,11,26.64v125.13c0,8.33,6.75,15.08,15.08,15.08h125.13
				c8.33,0,15.08-6.75,15.08-15.08V26.64C166.29,18.31,159.54,11.55,151.21,11.55z M119.88,59.64c5.4-2.93,11.64-1.51,15.91-3.49
				c8.5-3.94,12.24-9.15,12.24-9.29c0.76,1.31-0.75,10.26-8.29,15.87c-3.79,2.81-9.93,2.22-15.11,5.58c-2,1.3-3.36,3.76-4.73,6.32
				c-1.3-3.2-3.07-6.15-5.23-8.77C116.2,63.28,117.71,60.82,119.88,59.64z M122.21,84.01c1.79-0.99,3.52-1.96,5.19-1.9
				c3.93,0.15,6.91,2.96,9.9,3.26c6.01,0.59,9.77-1.08,9.77-1.14c0,0.97-3.75,5.42-9.74,6.05c-3.01,0.32-6.2-2.01-10.14-1.84
				c-1.63,0.07-3.27,1.09-4.97,2.12c0.1-1.04,0.15-2.1,0.15-3.17C122.38,86.26,122.32,85.13,122.21,84.01z M103.28,50.93
				c2.09-3.33,6.02-4.51,7.77-6.95c3.52-4.91,3.95-9,3.9-9.03c0.84,0.48,2.82,5.95,0.37,11.46c-1.23,2.76-4.84,4.36-6.66,7.86
				c-0.76,1.46-0.69,3.41-0.64,5.41c-1.78-1.26-3.68-2.35-5.68-3.25C102.37,54.37,102.39,52.36,103.28,50.93z M83.34,15.43
				c1.51-0.01,8.5,5.8,9.54,15.15c0.52,4.69-3.09,9.7-2.78,15.87c0.12,2.42,1.59,4.86,3.13,7.36c-1.56-0.22-3.17-0.34-4.79-0.34
				c-1.85,0-3.66,0.15-5.43,0.44c-1.48-2.65-2.88-5.23-2.8-7.72c0.19-6.14,4.55-10.82,4.99-15.51
				C86.09,21.29,83.44,15.42,83.34,15.43z M66.32,43.54c1.78,2.44,1.36,6.37,3.48,9.7c0.9,1.41,2.69,2.34,4.48,3.32
				c-2,0.92-3.89,2.03-5.66,3.31c-1.8-1.09-3.6-2.12-4.4-3.64c-1.84-3.48-0.89-7.47-2.13-10.2c-2.47-5.47-5.78-7.89-5.87-7.89
				C57.05,37.65,62.78,38.67,66.32,43.54z M23.38,55.99c0.75-1.31,9.26-4.49,17.89-0.75c4.34,1.88,6.89,7.49,12.39,10.3
				c2.19,1.11,5.09,1.03,8.08,0.93c-2.1,2.67-3.81,5.68-5.03,8.91c-3.08-0.03-6.05-0.08-8.19-1.4c-5.23-3.22-7.13-9.33-10.97-12.04
				C29.83,56.52,23.42,55.92,23.38,55.99z M54.67,90.7c-1.86,1.02-3.67,2.08-5.41,2.02c-3.93-0.15-6.91-2.96-9.9-3.26
				c-6.01-0.59-9.77,1.08-9.77,1.14c0-0.97,3.75-5.42,9.74-6.05c3.01-0.32,6.2,2.01,10.14,1.84c1.7-0.07,3.42-1.19,5.2-2.26
				c-0.11,1.08-0.16,2.18-0.16,3.29C54.51,88.51,54.57,89.62,54.67,90.7z M56.8,115.18c-5.4,2.93-11.64,1.51-15.91,3.49
				c-8.5,3.94-12.24,9.15-12.24,9.29c-0.76-1.31,0.75-10.26,8.29-15.87c3.79-2.81,9.93-2.22,15.11-5.58
				c2.07-1.35,3.45-3.91,4.86-6.55c1.28,3.22,3.04,6.2,5.19,8.84v0C60.54,111.44,59.01,113.99,56.8,115.18z M73.39,123.89
				c-2.09,3.33-6.02,4.51-7.77,6.95c-3.52,4.91-3.95,9-3.9,9.03c-0.84-0.48-2.82-5.95-0.38-11.46c1.23-2.76,4.84-4.36,6.67-7.86
				c0.78-1.5,0.68-3.53,0.64-5.59c1.78,1.29,3.68,2.4,5.69,3.31C74.3,120.38,74.3,122.44,73.39,123.89z M93.6,159.38
				c-1.52,0-8.52-5.78-9.6-15.12c-0.54-4.69,3.05-9.71,2.72-15.88c-0.13-2.44-1.63-4.89-3.2-7.41c1.6,0.24,3.24,0.36,4.91,0.36
				c1.82,0,3.6-0.14,5.35-0.42c1.49,2.64,2.89,5.21,2.83,7.69c-0.17,6.14-4.51,10.84-4.93,15.53
				C90.85,153.44,93.47,159.28,93.6,159.38z M91.85,117.28c-1.15,0.14-2.32,0.21-3.51,0.21c-2.52,0-4.97-0.31-7.3-0.89
				c-2.2-0.55-4.31-1.34-6.28-2.34c-2.05-1.04-3.96-2.31-5.71-3.77c-1.8-1.5-3.42-3.22-4.82-5.1c-2.15-2.88-3.8-6.16-4.81-9.7
				c-0.61-2.12-0.98-4.33-1.11-6.61c-0.03-0.55-0.05-1.11-0.05-1.66c0-1.76,0.15-3.48,0.44-5.16c0.4-2.35,1.09-4.61,2-6.74
				c1.45-3.37,3.5-6.42,6.01-9.01c1.55-1.61,3.29-3.04,5.17-4.27c1.9-1.25,3.94-2.28,6.11-3.07c2.21-0.81,4.54-1.37,6.95-1.63
				c1.11-0.13,2.24-0.19,3.39-0.19c2.56,0,5.04,0.32,7.41,0.92c2.16,0.55,4.22,1.33,6.17,2.31c2.05,1.04,3.97,2.31,5.71,3.77
				c1.8,1.51,3.42,3.22,4.82,5.1c2.15,2.88,3.8,6.15,4.81,9.7v0c0.61,2.12,0.99,4.33,1.11,6.61c0.03,0.55,0.05,1.11,0.05,1.66
				c0,1.76-0.15,3.49-0.44,5.17c-0.41,2.35-1.09,4.6-2,6.73c-1.45,3.37-3.5,6.42-6.01,9.01c-1.55,1.61-3.29,3.04-5.17,4.27
				c-1.9,1.25-3.94,2.28-6.1,3.07C96.51,116.46,94.22,117.01,91.85,117.28z M110.35,131.29c-1.78-2.44-1.36-6.37-3.48-9.7
				c-0.89-1.39-2.63-2.31-4.4-3.28c2.01-0.91,3.91-2.02,5.68-3.29c1.77,1.07,3.51,2.09,4.3,3.58c1.84,3.48,0.89,7.47,2.14,10.2
				c2.47,5.47,5.78,7.89,5.87,7.89C119.62,137.18,113.9,136.16,110.35,131.29z M135.4,119.59c-4.33-1.88-6.88-7.49-12.39-10.3
				c-2.14-1.09-4.96-1.03-7.88-0.94c2.1-2.67,3.81-5.67,5.04-8.91c3,0.03,5.89,0.11,7.98,1.4c5.24,3.22,7.13,9.33,10.98,12.04
				c7.72,5.43,14.12,6.03,14.17,5.96C152.55,120.15,144.04,123.32,135.4,119.59z"/>
			<g>
				<defs>
					<circle id="SVGID_1_" cx="88.65" cy="87.61" r="30.08"/>
				</defs>
				<clipPath id="SVGID_2_">
					<use xlink:href="#SVGID_1_"  style="overflow:visible;"/>
				</clipPath>
				<path class="st1" d="M43.3,43.2v90.54h90.54V43.2H43.3z M61.88,130.92l-1.07,1.07H45.78l-1.07-1.07v-15.02l1.07-1.07H60.8
					l1.07,1.07V130.92z M61.88,113.48l-1.07,1.07H45.78l-1.07-1.07V98.46l1.07-1.07H60.8l1.07,1.07V113.48z M61.88,96
					c-0.42,0.42-0.65,0.65-1.07,1.07H45.78c-0.42-0.42-0.65-0.65-1.07-1.07V80.98c0.42-0.42,0.65-0.65,1.07-1.07H60.8
					c0.42,0.42,0.65,0.65,1.07,1.07V96z M61.88,78.52c-0.42,0.42-0.65,0.65-1.07,1.07H45.78c-0.42-0.42-0.65-0.65-1.07-1.07V63.49
					c0.42-0.42,0.65-0.65,1.07-1.07H60.8c0.42,0.42,0.65,0.65,1.07,1.07V78.52z M61.88,61.03l-1.07,1.07H45.78l-1.07-1.07V46.01
					l1.07-1.07H60.8l1.07,1.07V61.03z M79.52,130.92l-1.07,1.07H63.42l-1.07-1.07v-15.02l1.07-1.07h15.02l1.07,1.07V130.92z
					 M79.52,113.48l-1.07,1.07H63.42l-1.07-1.07V98.46l1.07-1.07h15.02l1.07,1.07V113.48z M79.52,96c-0.42,0.42-0.65,0.65-1.07,1.07
					H63.42C63,96.65,62.77,96.42,62.35,96V80.98c0.42-0.42,0.65-0.65,1.07-1.07h15.02c0.42,0.42,0.65,0.65,1.07,1.07V96z
					 M79.52,78.52c-0.42,0.42-0.65,0.65-1.07,1.07H63.42c-0.42-0.42-0.65-0.65-1.07-1.07V63.49c0.42-0.42,0.65-0.65,1.07-1.07h15.02
					c0.42,0.42,0.65,0.65,1.07,1.07V78.52z M79.52,61.03l-1.07,1.07H63.42l-1.07-1.07V46.01l1.07-1.07h15.02l1.07,1.07V61.03z
					 M97.15,130.92l-1.07,1.07H81.06l-1.07-1.07v-15.02l1.07-1.07h15.02l1.07,1.07V130.92z M97.15,113.48l-1.07,1.07H81.06
					l-1.07-1.07V98.46l1.07-1.07h15.02l1.07,1.07V113.48z M97.15,96c-0.42,0.42-0.65,0.65-1.07,1.07H81.06
					c-0.42-0.42-0.65-0.65-1.07-1.07V80.98c0.42-0.42,0.65-0.65,1.07-1.07h15.02c0.42,0.42,0.65,0.65,1.07,1.07V96z M97.15,78.52
					c-0.42,0.42-0.65,0.65-1.07,1.07H81.06c-0.42-0.42-0.65-0.65-1.07-1.07V63.49c0.42-0.42,0.65-0.65,1.07-1.07h15.02
					c0.42,0.42,0.65,0.65,1.07,1.07V78.52z M97.15,61.03l-1.07,1.07H81.06l-1.07-1.07V46.01l1.07-1.07h15.02l1.07,1.07V61.03z
					 M114.79,130.92l-1.07,1.07H98.7l-1.07-1.07v-15.02l1.07-1.07h15.02l1.07,1.07V130.92z M114.79,113.48l-1.07,1.07H98.7
					l-1.07-1.07V98.46l1.07-1.07h15.02l1.07,1.07V113.48z M114.79,96c-0.42,0.42-0.65,0.65-1.07,1.07H98.7
					c-0.42-0.42-0.65-0.65-1.07-1.07V80.98c0.42-0.42,0.65-0.65,1.07-1.07h15.02c0.42,0.42,0.65,0.65,1.07,1.07V96z M114.79,78.52
					c-0.42,0.42-0.65,0.65-1.07,1.07H98.7c-0.42-0.42-0.65-0.65-1.07-1.07V63.49c0.42-0.42,0.65-0.65,1.07-1.07h15.02
					c0.42,0.42,0.65,0.65,1.07,1.07V78.52z M114.79,61.03l-1.07,1.07H98.7l-1.07-1.07V46.01l1.07-1.07h15.02l1.07,1.07V61.03z
					 M132.43,130.92l-1.07,1.07h-15.02l-1.07-1.07v-15.02l1.07-1.07h15.02l1.07,1.07V130.92z M132.43,113.48l-1.07,1.07h-15.02
					l-1.07-1.07V98.46l1.07-1.07h15.02l1.07,1.07V113.48z M132.43,96c-0.42,0.42-0.65,0.65-1.07,1.07h-15.02
					c-0.42-0.42-0.65-0.65-1.07-1.07V80.98c0.42-0.42,0.65-0.65,1.07-1.07h15.02c0.42,0.42,0.65,0.65,1.07,1.07V96z M132.43,78.52
					c-0.42,0.42-0.65,0.65-1.07,1.07h-15.02c-0.42-0.42-0.65-0.65-1.07-1.07V63.49c0.42-0.42,0.65-0.65,1.07-1.07h15.02
					c0.42,0.42,0.65,0.65,1.07,1.07V78.52z M132.43,61.03l-1.07,1.07h-15.02l-1.07-1.07V46.01l1.07-1.07h15.02l1.07,1.07V61.03z"/>
			</g>
		</g>
		<path class="st0" d="M259,33.19c4.15,0,8.21,0.14,12.19,0.44c3.98,0.29,7.91,0.71,11.78,1.24c3.87,0.54,7.55,1.29,11.05,2.25
			l-2.95,16c-3.71-0.19-7.36-0.34-10.97-0.44c-3.6-0.1-7.15-0.17-10.64-0.22c-3.49-0.05-7.15-0.07-10.97-0.07
			c-5.02,0-9.28,0.51-12.77,1.53c-3.49,1.02-6.41,2.76-8.76,5.24c-2.35,2.47-4.28,5.91-5.81,10.32c-1.53,4.41-2.84,10.01-3.93,16.8
			c-1.09,8.15-1.45,14.57-1.06,19.27c0.38,4.7,1.72,8.02,4.01,9.96c2.29,1.94,5.78,2.91,10.47,2.91c3.71,0,6.93-0.51,9.66-1.53
			c2.73-1.02,5.26-2.37,7.61-4.07c2.34-1.7,4.72-3.47,7.12-5.31l3.76,10.47c-1.96,2.14-4.2,4.34-6.71,6.62
			c-2.51,2.28-5.35,4.41-8.51,6.4c-3.17,1.99-6.71,3.59-10.64,4.8c-3.93,1.21-8.29,1.82-13.09,1.82c-7.64,0-13.91-1.74-18.82-5.24
			c-4.91-3.49-8.24-9.11-9.98-16.87c-1.75-7.76-1.69-18.08,0.16-30.98c1.53-10.37,3.79-18.9,6.79-25.59
			c3-6.69,6.82-11.9,11.46-15.64c4.63-3.73,10.23-6.35,16.77-7.85C242.8,33.95,250.38,33.19,259,33.19z M292.23,77.7l-9.33,57.88
			h-18.17l-0.82-15.56l-1.64-4.22l5.89-38.1H292.23z"/>
		<path class="st0" d="M329.14,35.23l-15.88,100.35h-24.39l15.88-100.35H329.14z M346.81,33.78c9.16,0,16.8,0.95,22.91,2.84
			c6.11,1.89,10.5,5.04,13.18,9.45c2.67,4.41,3.41,10.54,2.21,18.4c-0.65,4.46-1.88,8.39-3.68,11.78c-1.8,3.39-4.45,6.13-7.94,8.22
			c-3.49,2.08-8.08,3.42-13.75,4l-0.16,0.87c1.97,0.29,3.87,1.02,5.73,2.18c1.85,1.16,3.49,2.79,4.91,4.87
			c1.42,2.08,2.34,4.87,2.78,8.36l5.73,30.83h-25.7l-4.91-30.98c-0.44-3.29-1.39-5.5-2.86-6.62c-1.47-1.11-3.68-1.67-6.63-1.67
			c-7.75-0.1-14.13-0.14-19.15-0.14c-5.02,0-9.22-0.05-12.6-0.15c-3.38-0.09-6.49-0.19-9.33-0.29l2.29-16.14h40.59
			c4.36,0,7.86-0.44,10.47-1.31c2.62-0.87,4.64-2.45,6.05-4.72c1.42-2.28,2.46-5.4,3.11-9.38c0.65-3.49,0.65-6.23,0-8.22
			c-0.66-1.99-2.07-3.39-4.26-4.22c-2.18-0.82-5.29-1.24-9.33-1.24c-10.58,0-19.45,0.07-26.59,0.22
			c-7.15,0.14-11.98,0.27-14.48,0.36l-0.65-15.85c4.47-0.48,8.73-0.82,12.77-1.02c4.03-0.19,8.37-0.31,13.01-0.36
			C335.16,33.8,340.59,33.78,346.81,33.78z"/>
		<path class="st0" d="M418.97,34.79c6.22,0,12.41,0.02,18.58,0.07c6.16,0.05,12.19,0.2,18.08,0.44c5.89,0.24,11.35,0.61,16.37,1.09
			l-2.95,16h-42.22c-3.17,0-5.51,0.61-7.04,1.82c-1.53,1.21-2.51,3.22-2.95,6.04l-7.86,50.61c-0.44,2.52-0.06,4.41,1.14,5.67
			c1.2,1.26,3.33,1.89,6.38,1.89h41.73l-0.49,16.14c-5.02,0.58-10.39,0.94-16.12,1.09c-5.73,0.14-11.51,0.24-17.35,0.29
			c-5.84,0.05-11.54,0.07-17.1,0.07c-8.73,0-15.11-2.2-19.15-6.62c-4.04-4.41-5.51-10.15-4.42-17.23l9-57.59
			c0.98-6.11,3.71-10.93,8.18-14.47C405.27,36.56,411.33,34.79,418.97,34.79z M392.45,75.66h66.61l-2.13,15.56h-67.27L392.45,75.66z
			"/>
		<path class="st0" d="M509.32,34.79c6.22,0,12.41,0.02,18.58,0.07c6.16,0.05,12.19,0.2,18.08,0.44c5.89,0.24,11.35,0.61,16.37,1.09
			l-2.95,16h-42.22c-3.17,0-5.51,0.61-7.04,1.82c-1.53,1.21-2.51,3.22-2.95,6.04l-7.86,50.61c-0.44,2.52-0.06,4.41,1.14,5.67
			c1.2,1.26,3.33,1.89,6.38,1.89h41.73l-0.49,16.14c-5.02,0.58-10.39,0.94-16.12,1.09c-5.73,0.14-11.51,0.24-17.35,0.29
			c-5.84,0.05-11.54,0.07-17.1,0.07c-8.73,0-15.11-2.2-19.15-6.62c-4.04-4.41-5.51-10.15-4.42-17.23l9-57.59
			c0.98-6.11,3.71-10.93,8.18-14.47C495.63,36.56,501.69,34.79,509.32,34.79z M482.81,75.66h66.61l-2.13,15.56h-67.27L482.81,75.66z
			"/>
		<path class="st0" d="M663.66,35.23l-14.73,92.78c-0.44,2.62-1.36,4.53-2.78,5.74c-1.42,1.21-3.6,1.82-6.55,1.82h-12.44
			c-2.73,0-4.72-0.63-5.97-1.89c-1.26-1.26-2.37-3.01-3.35-5.24l-23.73-52.64c-1.09-2.13-2.05-4.51-2.86-7.13
			c-0.82-2.62-1.56-5.19-2.21-7.71h-1.97c0,2.62-0.08,5.26-0.25,7.93c-0.16,2.67-0.47,5.36-0.9,8.07l-9.33,58.61h-23.57l14.57-92.78
			c0.44-2.62,1.42-4.53,2.95-5.75c1.53-1.21,3.76-1.82,6.71-1.82h12.11c2.73,0,4.69,0.65,5.89,1.96c1.2,1.31,2.34,3.03,3.44,5.16
			l23.08,50.9c1.09,2.23,2.15,4.68,3.19,7.34c1.03,2.67,1.99,5.5,2.86,8.51h2.29c-0.11-2.91-0.08-5.62,0.08-8.14
			c0.16-2.52,0.46-5.09,0.9-7.71l9-58.03H663.66z"/>
		<path class="st0" d="M723.65,35.09l-12.76,82.02c-0.55,3.1-0.03,5.57,1.55,7.42c1.58,1.84,4.34,2.76,8.27,2.76h42.22l-0.33,7.42
			c-7.31,0.39-14.7,0.63-22.18,0.73c-7.47,0.1-14.87,0.14-22.18,0.14c-4.04,0-7.56-0.75-10.56-2.25c-3-1.5-5.16-3.66-6.46-6.47
			c-1.31-2.81-1.64-6.16-0.98-10.04l12.6-81.73H723.65z"/>
		<path class="st0" d="M794.18,65.04l-11.13,70.53h-10.15l11.13-70.53H794.18z M795.98,35.38c1.2,0,2.07,0.32,2.62,0.95
			c0.54,0.63,0.71,1.43,0.49,2.4l-1.31,8.58c-0.33,1.84-1.53,2.76-3.6,2.76h-4.75c-2.51,0-3.6-1.11-3.27-3.35l1.31-8.44
			c0.33-1.94,1.53-2.91,3.6-2.91H795.98z"/>
		<path class="st0" d="M866.44,66h10.47l-11.62,68.79c-0.66,4.75-1.99,9.02-4.01,12.8c-2.02,3.78-4.75,7.05-8.18,9.82
			c-3.44,2.76-7.61,4.89-12.52,6.4c-4.91,1.5-10.64,2.4-17.18,2.69c-1.75,0.09-4.31,0.14-7.69,0.14c-3.38,0-6.96-0.14-10.72-0.44
			c-3.76-0.29-7.18-0.73-10.23-1.31l1.15-6.25c2.62,0.1,5.29,0.17,8.02,0.22c2.73,0.05,5.67,0.07,8.84,0.07
			c3.16,0,6.6-0.1,10.31-0.29c8.4-0.49,15.41-2.42,21.03-5.82c5.62-3.39,9.19-8.87,10.72-16.43c0.87-4.17,1.72-7.85,2.54-11.05
			c0.82-3.2,1.94-5.91,3.35-8.14l-2.78-1.31L866.44,66z M840.75,63.09c3.82,0,7.75,0.12,11.78,0.36c4.03,0.24,8.1,0.58,12.19,1.02
			s7.94,0.95,11.54,1.53l-4.58,5.82c-6-0.19-11.24-0.39-15.71-0.58c-4.48-0.19-8.4-0.29-11.78-0.29c-5.78,0-10.53,0.36-14.24,1.09
			c-3.71,0.73-6.69,2.11-8.92,4.14c-2.24,2.04-4.04,5.02-5.4,8.94c-1.37,3.93-2.59,8.99-3.68,15.2c-1.2,7.27-1.72,12.99-1.56,17.16
			c0.16,4.17,1.28,7.13,3.36,8.87c2.07,1.74,5.24,2.62,9.49,2.62c3.82,0,7.8-0.78,11.95-2.33c4.14-1.55,8.43-3.8,12.85-6.76
			c4.42-2.96,8.86-6.62,13.34-10.98l2.29,4.8c-3.49,4.56-7.56,8.58-12.19,12.07c-4.64,3.49-9.55,6.25-14.73,8.29
			c-5.18,2.04-10.39,3.05-15.63,3.05c-6,0-10.72-1.21-14.16-3.63c-3.44-2.42-5.59-6.38-6.46-11.85c-0.87-5.48-0.55-12.87,0.98-22.18
			c1.31-7.76,3-14.01,5.07-18.76c2.07-4.75,4.64-8.41,7.69-10.98c3.05-2.57,6.76-4.31,11.13-5.23
			C829.73,63.55,834.86,63.09,840.75,63.09z"/>
		<path class="st0" d="M905.13,33.78l-4.58,29.52c-0.44,3.49-1.09,7.08-1.96,10.76c-0.87,3.69-1.69,6.74-2.45,9.16l0.82,2.18
			l-8.02,50.17h-10.31l16.2-101.8H905.13z M935.89,63.3c6.76,0,11.81,1.65,15.14,4.95c3.33,3.3,4.5,8.14,3.52,14.54l-8.51,52.79
			h-10.31l8.18-50.76c0.65-5.04,0.14-8.55-1.56-10.54c-1.69-1.99-4.83-2.98-9.41-2.98c-5.46,0-11.08,1.53-16.86,4.58
			c-5.79,3.06-12.66,7.44-20.62,13.16l0.16-7.27c7.64-5.91,14.73-10.47,21.28-13.67C923.46,64.9,929.78,63.3,935.89,63.3z"/>
		<path class="st0" d="M1015.87,63.88l-1.31,7.56h-51.39l0.98-6.83l15.55-0.73H1015.87z M992.47,42.65l-11.78,74.46
			c-0.55,3.59-0.06,6.16,1.47,7.71c1.53,1.55,4.26,2.33,8.18,2.33h13.26l0.33,6.83c-1.64,0.39-3.55,0.7-5.73,0.95
			c-2.18,0.24-4.23,0.41-6.14,0.51c-1.91,0.1-3.41,0.15-4.5,0.15c-6.66,0-11.43-1.55-14.32-4.65c-2.89-3.1-3.9-7.47-3.03-13.09
			l11.95-75.19H992.47z"/>
		<path class="st0" d="M1069.55,35.23l-15.88,100.35h-10.8l15.88-100.35H1069.55z M1096.23,33.92c8.51,0,15.22,0.97,20.13,2.91
			c4.91,1.94,8.21,5.16,9.9,9.67c1.69,4.51,1.88,10.69,0.57,18.54c-1.2,8.24-3.27,14.54-6.22,18.91c-2.95,4.36-7.01,7.37-12.19,9.02
			c-5.18,1.65-11.98,2.47-20.38,2.47c-4.26,0-8.38-0.07-12.36-0.22c-3.98-0.14-7.61-0.36-10.88-0.65c-3.27-0.29-6.05-0.56-8.35-0.8
			c-2.29-0.24-3.93-0.46-4.91-0.65l0.82-5.96c5.67,0,11.54,0,17.59,0c6.05,0,11.97,0,17.76,0c6.33,0,11.37-0.68,15.14-2.03
			c3.76-1.36,6.68-3.66,8.76-6.91c2.07-3.25,3.6-7.93,4.58-14.03c0.98-5.82,0.95-10.32-0.08-13.53c-1.04-3.2-3.19-5.38-6.46-6.54
			c-3.27-1.16-7.86-1.75-13.75-1.75c-8.73,0-16.28,0.03-22.67,0.07c-6.38,0.05-10.72,0.17-13.01,0.37l-1.47-7.56
			c4.04-0.39,7.83-0.68,11.37-0.87c3.54-0.2,7.34-0.31,11.37-0.37C1085.54,33.95,1090.45,33.92,1096.23,33.92z"/>
		<path class="st0" d="M1224,35.23l-51.39,97.73c-0.76,1.74-2.24,2.62-4.42,2.62h-11.62c-1.09,0-1.96-0.29-2.62-0.87
			c-0.65-0.58-1.09-1.31-1.31-2.18l-20.78-97.29h10.97l16.2,82.17c0.43,1.84,0.82,3.66,1.15,5.45c0.33,1.8,0.6,3.61,0.82,5.46h4.26
			c0.76-1.84,1.61-3.73,2.54-5.67c0.92-1.94,1.88-3.83,2.86-5.67l42.06-81.73H1224z"/>
	</g>
</g>
</svg>
