<svg xmlns="http://www.w3.org/2000/svg" viewBox="0 0 35.49 35.48"><defs><style>.cls-1{fill:#00b079;}</style></defs><title>ig-icon</title><g id="Warstwa_2" data-name="Warstwa 2"><g id="Artwrk"><path class="cls-1" d="M17.74,0c-4.82,0-5.42,0-7.31.11A12.86,12.86,0,0,0,6.12.93,8.53,8.53,0,0,0,3,3a8.53,8.53,0,0,0-2,3.14,12.86,12.86,0,0,0-.82,4.31C0,12.32,0,12.92,0,17.74s0,5.43.11,7.32a12.75,12.75,0,0,0,.82,4.3A8.64,8.64,0,0,0,3,32.51a8.63,8.63,0,0,0,3.14,2,13.09,13.09,0,0,0,4.31.83c1.89.08,2.49.1,7.31.1s5.43,0,7.32-.1a13,13,0,0,0,4.3-.83,9,9,0,0,0,5.19-5.19,13,13,0,0,0,.83-4.3c.08-1.89.11-2.5.11-7.32s0-5.42-.11-7.31a13.09,13.09,0,0,0-.83-4.31,8.63,8.63,0,0,0-2-3.14,8.64,8.64,0,0,0-3.15-2,12.75,12.75,0,0,0-4.3-.82C23.17,0,22.56,0,17.74,0Zm0,3.2c4.74,0,5.3,0,7.17.1a10,10,0,0,1,3.3.61,5.55,5.55,0,0,1,2,1.33,5.45,5.45,0,0,1,1.32,2,9.36,9.36,0,0,1,.61,3.29c.09,1.87.11,2.44.11,7.17s0,5.3-.11,7.17a9.49,9.49,0,0,1-.61,3.3,5.8,5.8,0,0,1-3.36,3.36,9.49,9.49,0,0,1-3.3.61c-1.87.09-2.43.11-7.17.11s-5.3,0-7.17-.11a9.36,9.36,0,0,1-3.29-.61,5.45,5.45,0,0,1-2-1.32,5.55,5.55,0,0,1-1.33-2,10,10,0,0,1-.61-3.3c-.09-1.87-.1-2.43-.1-7.17s0-5.3.1-7.17a9.86,9.86,0,0,1,.61-3.29,5.47,5.47,0,0,1,1.33-2,5.47,5.47,0,0,1,2-1.33,9.86,9.86,0,0,1,3.29-.61C12.44,3.21,13,3.2,17.74,3.2Z"/><path class="cls-1" d="M17.74,23.66a5.92,5.92,0,1,1,5.92-5.92A5.92,5.92,0,0,1,17.74,23.66Zm0-15a9.11,9.11,0,1,0,9.11,9.11A9.11,9.11,0,0,0,17.74,8.63Z"/><path class="cls-1" d="M29.34,8.27a2.13,2.13,0,1,1-2.13-2.13A2.13,2.13,0,0,1,29.34,8.27Z"/></g></g></svg>