<svg xmlns="http://www.w3.org/2000/svg" xmlns:xlink="http://www.w3.org/1999/xlink" viewBox="0 0 189.36 24.24"><defs><style>.cls-1{fill:none;}.cls-2{fill:#00b079;}.cls-3{clip-path:url(#clip-path);}</style><clipPath id="clip-path"><circle class="cls-1" cx="12.12" cy="11.87" r="4.7"/></clipPath></defs><title>logo-icon</title><g id="Warstwa_2" data-name="Warstwa 2"><g id="Artwrk"><path class="cls-2" d="M21.89,0H2.35A2.35,2.35,0,0,0,0,2.35V21.89a2.35,2.35,0,0,0,2.35,2.35H21.89a2.35,2.35,0,0,0,2.35-2.35V2.35A2.35,2.35,0,0,0,21.89,0ZM17,7.51c.84-.46,1.81-.24,2.48-.55a4.7,4.7,0,0,0,1.91-1.45A3,3,0,0,1,20.1,8c-.6.44-1.55.35-2.36.87a2.66,2.66,0,0,0-.74,1,5.14,5.14,0,0,0-.82-1.37A2.42,2.42,0,0,1,17,7.51Zm.36,3.8a1.73,1.73,0,0,1,.81-.29c.62,0,1.08.46,1.55.5a3.1,3.1,0,0,0,1.52-.17,1.9,1.9,0,0,1-1.52.94c-.47.05-1-.31-1.58-.29a1.76,1.76,0,0,0-.78.34,4.19,4.19,0,0,0,0-.5A4.71,4.71,0,0,0,17.36,11.31ZM14.41,6.15c.32-.52.94-.71,1.21-1.09a3,3,0,0,0,.61-1.41,1.91,1.91,0,0,1,.06,1.79c-.2.43-.76.68-1,1.23a1.74,1.74,0,0,0-.1.84,6,6,0,0,0-.89-.5A1.64,1.64,0,0,1,14.41,6.15ZM11.29.6A3,3,0,0,1,12.78,3c.09.73-.48,1.51-.43,2.48a2.7,2.7,0,0,0,.49,1.15,4.74,4.74,0,0,0-.75-.06,6,6,0,0,0-.85.07,2.44,2.44,0,0,1-.43-1.2c0-1,.71-1.69.78-2.42A4.75,4.75,0,0,0,11.29.6ZM8.64,5c.27.38.21,1,.54,1.52a1.94,1.94,0,0,0,.7.52A5.25,5.25,0,0,0,9,7.54,1.7,1.7,0,0,1,8.31,7C8,6.43,8.17,5.81,8,5.38a3.07,3.07,0,0,0-.91-1.23A1.89,1.89,0,0,1,8.64,5Zm-6.71,2a3,3,0,0,1,2.8-.12C5.4,7.11,5.8,8,6.66,8.43a2.66,2.66,0,0,0,1.26.14A5.28,5.28,0,0,0,7.14,10a2.56,2.56,0,0,1-1.28-.21C5,9.24,4.74,8.29,4.14,7.87A4.72,4.72,0,0,0,1.93,6.94Zm4.89,5.41a1.83,1.83,0,0,1-.85.32c-.61,0-1.07-.46-1.54-.51a3.08,3.08,0,0,0-1.53.18,1.92,1.92,0,0,1,1.52-.95c.47-.05,1,.32,1.59.29a1.89,1.89,0,0,0,.81-.35,4.36,4.36,0,0,0,0,.51A4.24,4.24,0,0,0,6.82,12.35Zm.33,3.83c-.84.45-1.82.23-2.48.54a4.8,4.8,0,0,0-1.91,1.45,3,3,0,0,1,1.29-2.48c.59-.43,1.55-.34,2.36-.87a2.73,2.73,0,0,0,.76-1A5.16,5.16,0,0,0,8,15.18H8A2.71,2.71,0,0,1,7.15,16.18Zm2.59,1.36c-.33.52-.94.7-1.21,1.08A3.06,3.06,0,0,0,7.92,20a1.91,1.91,0,0,1-.06-1.79c.19-.43.76-.68,1-1.22a1.91,1.91,0,0,0,.1-.88,4.93,4.93,0,0,0,.89.52A1.85,1.85,0,0,1,9.74,17.54Zm3.16,5.54a3,3,0,0,1-1.5-2.36c-.09-.74.47-1.52.42-2.48a2.64,2.64,0,0,0-.5-1.16,4.9,4.9,0,0,0,.77.06,4.57,4.57,0,0,0,.83-.07,2.52,2.52,0,0,1,.45,1.2c0,1-.71,1.7-.77,2.43A4.69,4.69,0,0,0,12.9,23.08Zm-.28-6.57a4.93,4.93,0,0,1-.55,0A4.61,4.61,0,0,1,10,16a4.44,4.44,0,0,1-.89-.59,4.68,4.68,0,0,1-.75-.79,4.6,4.6,0,0,1-.75-1.52,4.36,4.36,0,0,1-.18-1v-.26a4.25,4.25,0,0,1,.07-.8A4.57,4.57,0,0,1,8.7,8.58a4.66,4.66,0,0,1,.8-.67,5.38,5.38,0,0,1,1-.48,4.85,4.85,0,0,1,1.08-.25,4.71,4.71,0,0,1,.53,0,4.91,4.91,0,0,1,1.16.14,5,5,0,0,1,1,.36,4.81,4.81,0,0,1,.9.59,4.39,4.39,0,0,1,.75.8,4.85,4.85,0,0,1,.75,1.51h0a5,5,0,0,1,.17,1,2.35,2.35,0,0,1,0,.26,4.28,4.28,0,0,1-.07.81,4.7,4.7,0,0,1-.31,1,4.83,4.83,0,0,1-.94,1.41,4.33,4.33,0,0,1-.81.66,4,4,0,0,1-1,.48A4.78,4.78,0,0,1,12.62,16.51Zm2.89,2.18c-.28-.38-.21-1-.54-1.51a1.78,1.78,0,0,0-.69-.51,6.09,6.09,0,0,0,.89-.52,1.81,1.81,0,0,1,.67.56c.29.54.14,1.17.33,1.59a3,3,0,0,0,.92,1.24A1.93,1.93,0,0,1,15.51,18.69Zm3.91-1.82c-.68-.3-1.07-1.17-1.93-1.61a2.69,2.69,0,0,0-1.23-.15A5.13,5.13,0,0,0,17,13.72a2.46,2.46,0,0,1,1.25.22c.82.5,1.11,1.45,1.71,1.88a4.94,4.94,0,0,0,2.21.93A3,3,0,0,1,19.42,16.87Z"/><g class="cls-3"><path class="cls-2" d="M5,5.25V19.39H19.18V5.25ZM7.94,19l-.16.16H5.43L5.26,19V16.6l.17-.17H7.78l.16.17Zm0-2.73-.16.17H5.43l-.17-.17V13.88l.17-.17H7.78l.16.17Zm0-2.73-.16.17H5.43l-.17-.17V11.15L5.43,11H7.78l.16.17Zm0-2.72-.16.16H5.43l-.17-.16V8.42l.17-.17H7.78l.16.17ZM7.94,8l-.16.16H5.43L5.26,8V5.69l.17-.17H7.78l.16.17ZM10.7,19l-.17.16H8.18L8,19V16.6l.16-.17h2.35l.17.17Zm0-2.73-.17.17H8.18L8,16.22V13.88l.16-.17h2.35l.17.17Zm0-2.73-.17.17H8.18L8,13.49V11.15L8.18,11h2.35l.17.17Zm0-2.72-.17.16H8.18L8,10.77V8.42l.16-.17h2.35l.17.17ZM10.7,8l-.17.16H8.18L8,8V5.69l.16-.17h2.35l.17.17ZM13.45,19l-.17.16H10.94L10.77,19V16.6l.17-.17h2.34l.17.17Zm0-2.73-.17.17H10.94l-.17-.17V13.88l.17-.17h2.34l.17.17Zm0-2.73-.17.17H10.94l-.17-.17V11.15l.17-.17h2.34l.17.17Zm0-2.72-.17.16H10.94l-.17-.16V8.42l.17-.17h2.34l.17.17Zm0-2.73-.17.16H10.94L10.77,8V5.69l.17-.17h2.34l.17.17ZM16.2,19l-.16.16H13.69L13.52,19V16.6l.17-.17H16l.16.17Zm0-2.73-.16.17H13.69l-.17-.17V13.88l.17-.17H16l.16.17Zm0-2.73-.16.17H13.69l-.17-.17V11.15c.07-.07.11-.1.17-.17H16l.16.17Zm0-2.72-.16.16H13.69l-.17-.16V8.42a1.37,1.37,0,0,0,.17-.17H16l.16.17ZM16.2,8,16,8.2H13.69L13.52,8V5.69l.17-.17H16l.16.17ZM19,19l-.17.16H16.44L16.28,19V16.6l.16-.17h2.35l.17.17Zm0-2.73-.17.17H16.44l-.16-.17V13.88l.16-.17h2.35l.17.17Zm0-2.73-.17.17H16.44l-.16-.17V11.15l.16-.17h2.35l.17.17Zm0-2.72-.17.16H16.44l-.16-.16V8.42l.16-.17h2.35l.17.17ZM19,8l-.17.16H16.44L16.28,8V5.69l.16-.17h2.35l.17.17Z"/></g><path class="cls-2" d="M38.72,3.38c.64,0,1.28,0,1.9.07s1.23.11,1.84.19A12.76,12.76,0,0,1,44.18,4l-.46,2.5L42,6.42l-1.66,0-1.71,0a7.13,7.13,0,0,0-2,.24,3,3,0,0,0-1.37.82A4.39,4.39,0,0,0,34.37,9a16,16,0,0,0-.61,2.62,15,15,0,0,0-.17,3,2.18,2.18,0,0,0,.63,1.56,2.5,2.5,0,0,0,1.63.45,4.27,4.27,0,0,0,1.51-.24,4.85,4.85,0,0,0,1.19-.63c.37-.27.74-.54,1.11-.83l.59,1.63c-.31.34-.66.68-1,1a9.42,9.42,0,0,1-1.33,1,6.82,6.82,0,0,1-1.66.75,7.19,7.19,0,0,1-2,.28,4.93,4.93,0,0,1-2.94-.82,4.16,4.16,0,0,1-1.56-2.63,14,14,0,0,1,0-4.84,15.25,15.25,0,0,1,1.06-4A6.33,6.33,0,0,1,32.55,5a6.2,6.2,0,0,1,2.61-1.23A16.38,16.38,0,0,1,38.72,3.38Zm5.18,7-1.45,9H39.61l-.13-2.43-.25-.66.92-5.94Z"/><path class="cls-2" d="M49.66,3.7,47.19,19.36H43.38L45.86,3.7Zm2.76-.23A12.48,12.48,0,0,1,56,3.91a3.53,3.53,0,0,1,2.06,1.48,4.29,4.29,0,0,1,.34,2.87,5.6,5.6,0,0,1-.57,1.84,3.24,3.24,0,0,1-1.24,1.28,5.31,5.31,0,0,1-2.15.63l0,.13a2.44,2.44,0,0,1,.89.34,2.65,2.65,0,0,1,.77.76,3,3,0,0,1,.43,1.31l.9,4.81h-4l-.76-4.83a1.53,1.53,0,0,0-.45-1,1.72,1.72,0,0,0-1-.26l-3,0-2,0-1.46,0,.36-2.52h6.34a5.51,5.51,0,0,0,1.63-.2A1.76,1.76,0,0,0,54,9.68a4.09,4.09,0,0,0,.48-1.47,2.48,2.48,0,0,0,0-1.28,1,1,0,0,0-.66-.66,4.29,4.29,0,0,0-1.46-.19c-1.65,0-3,0-4.15,0L46,6.17l-.1-2.47c.7-.08,1.36-.13,2-.16s1.31,0,2-.06Z"/><path class="cls-2" d="M63.69,3.63h2.9c1,0,1.9,0,2.82.07s1.77.09,2.56.17l-.46,2.49h-6.6a1.71,1.71,0,0,0-1.09.29,1.38,1.38,0,0,0-.46.94l-1.23,7.9a1,1,0,0,0,.18.89,1.38,1.38,0,0,0,1,.29h6.52l-.08,2.52c-.78.09-1.62.15-2.51.17s-1.8,0-2.71.05H61.85a3.87,3.87,0,0,1-3-1,3.09,3.09,0,0,1-.69-2.69l1.4-9a3.47,3.47,0,0,1,1.28-2.26A4.42,4.42,0,0,1,63.69,3.63ZM59.55,10H70l-.33,2.43H59.11Z"/><path class="cls-2" d="M77.79,3.63h2.9c1,0,1.91,0,2.83.07s1.77.09,2.55.17l-.46,2.49H79a1.76,1.76,0,0,0-1.1.29,1.42,1.42,0,0,0-.46.94l-1.22,7.9a1,1,0,0,0,.17.89,1.39,1.39,0,0,0,1,.29h6.52l-.08,2.52c-.78.09-1.62.15-2.52.17s-1.8,0-2.71.05H76a3.87,3.87,0,0,1-3-1,3.09,3.09,0,0,1-.69-2.69l1.41-9A3.43,3.43,0,0,1,75,4.46,4.39,4.39,0,0,1,77.79,3.63ZM73.65,10h10.4l-.33,2.43H73.22Z"/><path class="cls-2" d="M101.89,3.7l-2.3,14.48a1.42,1.42,0,0,1-.44.9,1.53,1.53,0,0,1-1,.28H96.19a1.28,1.28,0,0,1-.93-.29,2.77,2.77,0,0,1-.53-.82L91,10a7.13,7.13,0,0,1-.45-1.11c-.13-.41-.24-.81-.34-1.21h-.31c0,.41,0,.83,0,1.24a10.79,10.79,0,0,1-.14,1.26L88.3,19.36H84.62L86.89,4.88a1.39,1.39,0,0,1,.46-.9A1.66,1.66,0,0,1,88.4,3.7h1.89a1.23,1.23,0,0,1,.92.3,3.79,3.79,0,0,1,.53.81l3.61,7.94c.17.35.33.74.5,1.15s.31.86.44,1.33h.36c0-.45,0-.88,0-1.27s.08-.8.14-1.21l1.41-9Z"/><path class="cls-2" d="M111.25,3.67l-2,12.81a1.32,1.32,0,0,0,.24,1.16,1.67,1.67,0,0,0,1.29.43h6.59l0,1.16c-1.14.06-2.29.09-3.46.11l-3.46,0a3.71,3.71,0,0,1-1.65-.35,2.15,2.15,0,0,1-1-1,2.68,2.68,0,0,1-.15-1.57l2-12.76Z"/><path class="cls-2" d="M122.26,8.35l-1.73,11h-1.59l1.74-11Zm.28-4.63a.5.5,0,0,1,.41.15.39.39,0,0,1,.08.37l-.2,1.34a.5.5,0,0,1-.57.43h-.74c-.39,0-.56-.17-.51-.52l.21-1.32a.5.5,0,0,1,.56-.45Z"/><path class="cls-2" d="M133.54,8.5h1.64l-1.82,10.74a6.08,6.08,0,0,1-.62,2,4.94,4.94,0,0,1-1.28,1.53,5.88,5.88,0,0,1-2,1,11.33,11.33,0,0,1-2.69.42l-1.2,0c-.52,0-1.08,0-1.67-.07a13.68,13.68,0,0,1-1.6-.2l.18-1c.41,0,.83,0,1.25,0l1.38,0c.5,0,1,0,1.61-.05a7.16,7.16,0,0,0,3.29-.91,3.69,3.69,0,0,0,1.67-2.56c.14-.65.27-1.23.4-1.73a4.22,4.22,0,0,1,.52-1.27l-.43-.2Zm-4-.46c.6,0,1.21,0,1.84.06s1.27.09,1.91.16,1.23.15,1.8.24l-.72.91-2.45-.09c-.7,0-1.31-.05-1.84-.05a12.21,12.21,0,0,0-2.22.17,2.81,2.81,0,0,0-1.4.65,3.29,3.29,0,0,0-.84,1.39,16.43,16.43,0,0,0-.57,2.38,14.36,14.36,0,0,0-.25,2.68,1.8,1.8,0,0,0,.53,1.38,2.25,2.25,0,0,0,1.48.41,5.33,5.33,0,0,0,1.86-.36,10.31,10.31,0,0,0,2-1.06,14.78,14.78,0,0,0,2.08-1.71l.36.75a10.25,10.25,0,0,1-1.9,1.88,9.71,9.71,0,0,1-2.3,1.29,6.62,6.62,0,0,1-2.44.48,3.75,3.75,0,0,1-2.21-.57,2.61,2.61,0,0,1-1-1.85,11.17,11.17,0,0,1,.15-3.46,12.79,12.79,0,0,1,.79-2.93,4.73,4.73,0,0,1,1.2-1.71,3.91,3.91,0,0,1,1.74-.82A12,12,0,0,1,129.53,8Z"/><path class="cls-2" d="M139.58,3.47l-.71,4.61a15.8,15.8,0,0,1-.31,1.68c-.14.57-.26,1.05-.38,1.43l.12.34-1.25,7.83h-1.61L138,3.47Zm4.81,4.61a3.25,3.25,0,0,1,2.36.77,2.49,2.49,0,0,1,.55,2.27L146,19.36h-1.61l1.28-7.92a2.13,2.13,0,0,0-.25-1.65,1.85,1.85,0,0,0-1.46-.46,5.6,5.6,0,0,0-2.64.71,29.21,29.21,0,0,0-3.22,2.06l0-1.14a19.77,19.77,0,0,1,3.32-2.13A6.73,6.73,0,0,1,144.39,8.08Z"/><path class="cls-2" d="M156.87,8.17l-.2,1.18h-8l.16-1.07,2.42-.11Zm-3.65-3.32-1.84,11.63a1.34,1.34,0,0,0,.23,1.2,1.78,1.78,0,0,0,1.28.36H155l.06,1.07a8.41,8.41,0,0,1-.9.15c-.34,0-.66.06-1,.08l-.7,0a2.9,2.9,0,0,1-2.23-.73,2.31,2.31,0,0,1-.48-2l1.87-11.74Z"/><path class="cls-2" d="M165.25,3.7l-2.48,15.66h-1.68L163.57,3.7Zm4.17-.21a8.64,8.64,0,0,1,3.14.46,2.51,2.51,0,0,1,1.54,1.51,5.61,5.61,0,0,1,.09,2.89,7,7,0,0,1-1,3,3.52,3.52,0,0,1-1.9,1.41,10.66,10.66,0,0,1-3.18.39c-.67,0-1.31,0-1.93,0S165,13,164.51,13l-1.3-.13a7.14,7.14,0,0,1-.77-.1l.13-.93h5.52a6.92,6.92,0,0,0,2.36-.32,2.63,2.63,0,0,0,1.37-1.08,5.79,5.79,0,0,0,.71-2.19,4.58,4.58,0,0,0,0-2.11,1.54,1.54,0,0,0-1-1,6.71,6.71,0,0,0-2.14-.27h-3.54c-1,0-1.68,0-2,.06l-.23-1.18c.63-.06,1.22-.11,1.77-.14s1.15-.05,1.78-.06Z"/><path class="cls-2" d="M189.36,3.7l-8,15.25a.67.67,0,0,1-.69.41h-1.81a.59.59,0,0,1-.41-.13.7.7,0,0,1-.21-.35L175,3.7h1.71l2.53,12.82c.07.29.13.57.18.85s.09.57.13.86h.66c.12-.29.25-.59.4-.89s.29-.6.44-.88L187.6,3.7Z"/></g></g></svg>