<svg xmlns="http://www.w3.org/2000/svg" viewBox="0 0 28.79 50.75"><defs><style>.cls-1{fill:#00b079;}.cls-2{fill:none;stroke:#00b079;stroke-linecap:round;stroke-miterlimit:10;stroke-width:1.5px;}</style></defs><title>mobile-icon</title><g id="Warstwa_2" data-name="Warstwa 2"><g id="Artwrk"><path class="cls-1" d="M19.7,6.59h-17A2.69,2.69,0,0,0,0,9.28V48.06a2.68,2.68,0,0,0,2.69,2.69h17a2.68,2.68,0,0,0,2.69-2.69V9.28A2.69,2.69,0,0,0,19.7,6.59ZM8.39,8.09a.51.51,0,0,1,.36-.15h4.89a.51.51,0,0,1,.51.51.49.49,0,0,1-.15.36.51.51,0,0,1-.36.15H8.75a.51.51,0,0,1-.36-.87ZM11.2,49.64A1.67,1.67,0,1,1,12.87,48,1.67,1.67,0,0,1,11.2,49.64ZM21,45.26H1.43V10.42H21Z"/><path class="cls-2" d="M21,3.32c2.53.65,5.11,3.8,4.57,8.16"/><path class="cls-2" d="M21.84.75c3.38.86,6.82,5.07,6.1,10.91"/></g></g></svg>