<svg xmlns="http://www.w3.org/2000/svg" viewBox="0 0 21.73 18.12"><defs><style>.cls-1{fill:#00b079;}</style></defs><title>tick-icon2</title><g id="Warstwa_2" data-name="Warstwa 2"><g id="Warstwa_1-2" data-name="Warstwa 1"><path class="cls-1" d="M6.86,18.12,0,10.25,3.84,7.66,6.61,12l.09-.1c.66-.78,1.29-1.58,2-2.32,1-1,2-2,3-3a37.22,37.22,0,0,1,3.09-2.79,28.54,28.54,0,0,1,3.77-2.58c.59-.32,1.2-.62,1.81-.89a8.35,8.35,0,0,1,1-.28h.13c.08,0,.16,0,.21.11a.24.24,0,0,1,0,.28,3.17,3.17,0,0,1-.39.34A32.88,32.88,0,0,0,14.36,6.6a37.81,37.81,0,0,0-2.69,3.5c-.95,1.33-1.79,2.72-2.62,4.12-.71,1.2-1.37,2.43-2,3.66a1.64,1.64,0,0,1-.14.22Z"/></g></g></svg>